<svg xmlns="http://www.w3.org/2000/svg" viewBox="0 0 64 64" width="64" height="64">
  <defs>
    <linearGradient id="bg" x1="0" y1="0" x2="1" y2="1">
      <stop offset="0" stop-color="#16285f"/>
      <stop offset="1" stop-color="#0a1330"/>
    </linearGradient>
    <linearGradient id="r" x1="0" y1="0" x2="1" y2="0">
      <stop offset="0" stop-color="#ff7a6e"/>
      <stop offset="0.5" stop-color="#e2231a"/>
      <stop offset="1" stop-color="#9e120c"/>
    </linearGradient>
  </defs>
  <rect width="64" height="64" rx="14" fill="url(#bg)"/>
  <circle cx="13" cy="15" r="1.3" fill="#f5b50a"/>
  <circle cx="51" cy="19" r="1" fill="#ffffff"/>
  <circle cx="49" cy="47" r="1.2" fill="#f5b50a"/>
  <g transform="rotate(45 32 32)">
    <path d="M32 8 C40 16 42 26 42 34 L22 34 C22 26 24 16 32 8 Z" fill="url(#r)"/>
    <rect x="22" y="34" width="20" height="14" rx="4" fill="url(#r)"/>
    <circle cx="32" cy="26" r="5" fill="#cfe8ff" stroke="#ffffff" stroke-width="1.5"/>
    <path d="M22 42 L15 54 L22 50 Z" fill="#b51009"/>
    <path d="M42 42 L49 54 L42 50 Z" fill="#b51009"/>
    <path d="M27 48 L32 61 L37 48 Z" fill="#f5b50a"/>
  </g>
</svg>
